<?xml version="1.0" standalone="no"?><!DOCTYPE svg PUBLIC "-//W3C//DTD SVG 20010904//EN"
  "http://www.w3.org/TR/2001/REC-SVG-20010904/DTD/svg10.dtd"><svg version="1.0" xmlns="http://www.w3.org/2000/svg" width="84.000000pt" height="84.000000pt" viewBox="0 0 84.000000 84.000000" preserveAspectRatio="xMidYMid meet"><metadata>Created by potrace 1.14, written by Peter Selinger 2001-2017</metadata><g transform="translate(0.000000,84.000000) scale(0.100000,-0.100000)" fill="#000000" stroke="none"><path d="M191 808 c-74 -28 -142 -97 -170 -173 -20 -53 -22 -75 -20 -231 1
-167 2 -173 30 -232 33 -67 81 -115 148 -146 41 -19 66 -21 231 -23 162 -2
191 1 236 18 64 24 134 90 165 154 23 47 24 60 24 240 0 174 -2 194 -22 237
-30 65 -77 114 -142 146 -54 26 -61 27 -241 29 -166 2 -191 0 -239 -19z"/></g></svg>